<svg width="37" height="34" viewBox="0 0 37 34" fill="none" xmlns="http://www.w3.org/2000/svg">
<path fill-rule="evenodd" clip-rule="evenodd" d="M10.0136 7.61608H35.0714C35.3675 7.61706 35.659 7.68953 35.9211 7.82733C36.1832 7.96513 36.4082 8.16418 36.5768 8.40757C36.7455 8.65095 36.8529 8.93147 36.8899 9.22527C36.9269 9.51907 36.8925 9.81746 36.7894 10.0951L31.2887 24.7637C31.0191 25.477 30.3352 25.9519 29.5706 25.9519H14.902C14.163 25.9519 13.4938 25.5063 13.2096 24.8242L4.51289 3.94891H0.233307V0.281748H4.51105C5.23542 0.280114 5.94396 0.493578 6.54687 0.895083C7.14978 1.29659 7.61992 1.86806 7.89768 2.53705L10.0136 7.61608ZM24.0699 18.6176H27.737V14.9504H24.0699V11.2832H20.4027V14.9504H16.7355V18.6176H20.4027V22.2847H24.0699V18.6176ZM15.8187 33.2861C17.3377 33.2861 18.5691 32.0548 18.5691 30.5358C18.5691 29.0168 17.3377 27.7854 15.8187 27.7854C14.2997 27.7854 13.0683 29.0168 13.0683 30.5358C13.0683 32.0548 14.2997 33.2861 15.8187 33.2861ZM28.6538 33.2861C30.1727 33.2861 31.4041 32.0548 31.4041 30.5358C31.4041 29.0168 30.1727 27.7854 28.6538 27.7854C27.1348 27.7854 25.9034 29.0168 25.9034 30.5358C25.9034 32.0548 27.1348 33.2861 28.6538 33.2861Z" fill="white"/>
</svg>
