<svg width="1073" height="1120" viewBox="0 0 1073 1120" fill="none" xmlns="http://www.w3.org/2000/svg">
<path opacity="0.6" d="M28.8561 -419.987C52.8498 -452.635 88.8403 -469.819 136.828 -473.255C224.233 -480.129 273.934 -438.889 285.931 -349.536C339.06 9.59418 397.33 313.738 459.028 562.895L834.357 -153.647C868.634 -218.943 911.48 -253.31 962.895 -256.746C1038.3 -261.901 1084.58 -213.788 1103.43 -112.407C1146.27 116.13 1201.12 310.301 1266.24 475.26C1310.8 38.8057 1386.21 -275.648 1492.47 -469.819C1518.18 -517.932 1555.88 -541.988 1605.58 -545.425C1645 -548.861 1680.99 -536.833 1713.55 -511.058C1746.12 -485.283 1763.25 -452.636 1766.68 -413.114C1768.4 -382.184 1763.25 -356.409 1749.54 -330.634C1682.7 -206.915 1627.86 1.00275 1583.3 289.681C1540.46 569.768 1525.03 787.995 1535.31 944.363C1538.74 987.321 1531.89 1025.12 1514.75 1057.77C1494.18 1095.58 1463.33 1116.2 1423.92 1119.63C1379.36 1123.07 1333.08 1102.45 1288.52 1056.05C1129.14 892.813 1002.31 648.811 909.766 324.048C798.367 543.994 716.103 708.953 662.974 818.925C561.858 1013.1 476.166 1112.76 404.186 1117.91C357.912 1121.35 318.494 1081.83 284.217 999.35C196.812 774.249 102.551 339.513 1.43496 -304.859C-3.70654 -349.536 4.86246 -389.057 28.8561 -419.987Z" fill="white"/>
</svg>
