<svg width="598" height="330" viewBox="0 0 598 330" fill="none" xmlns="http://www.w3.org/2000/svg">
<path opacity="0.05" fill-rule="evenodd" clip-rule="evenodd" d="M-146.291 24.9052C-141.544 18.4526 -134.423 15.0564 -124.929 14.3772C-107.636 13.0188 -97.8033 21.1695 -95.4298 38.8292C-84.9185 109.808 -73.3899 169.919 -61.1832 219.162L13.074 77.5447C19.8555 64.6395 28.3324 57.8473 38.5046 57.1681C53.4239 56.1493 62.5789 65.6583 66.3087 85.6953C74.7856 130.863 85.6359 169.239 98.5208 201.842C107.337 115.581 122.256 53.4324 143.279 15.0565C148.365 5.54741 155.824 0.792893 165.658 0.113674C173.456 -0.565546 180.577 1.81172 187.019 6.90587C193.462 12 196.852 18.4525 197.531 26.2636C197.87 32.3765 196.852 37.4708 194.14 42.5649C180.916 67.0168 170.065 108.11 161.25 165.164C152.773 220.521 149.721 263.651 151.755 294.555C152.434 303.046 151.077 310.517 147.687 316.97C143.618 324.441 137.514 328.516 129.716 329.196C120.9 329.875 111.745 325.799 102.929 316.63C71.3948 284.367 46.3034 236.143 27.9933 171.956C5.95351 215.426 -10.3221 248.029 -20.8334 269.764C-40.8388 308.14 -57.7925 327.837 -72.0336 328.856C-81.1886 329.535 -88.9873 321.724 -95.7688 305.423C-113.062 260.934 -131.711 175.013 -151.716 47.6591C-152.733 38.8292 -151.038 31.0181 -146.291 24.9052ZM581.712 78.1331C569.496 56.6782 551.51 43.737 527.417 38.6287C520.97 37.2665 514.861 36.5854 509.092 36.5854C476.516 36.5854 450.047 53.6131 429.347 87.6686C411.701 116.616 402.878 148.628 402.878 183.705C402.878 209.928 408.308 232.405 419.167 251.135C431.383 272.59 449.368 285.531 473.461 290.64C479.909 292.002 486.017 292.683 491.786 292.683C524.702 292.683 551.171 275.655 571.532 241.6C589.177 212.312 598 180.3 598 145.222C598 118.659 592.571 96.5231 581.712 78.1331ZM538.955 172.467C534.204 194.944 525.72 211.631 513.165 222.869C503.324 231.724 494.161 235.47 485.678 233.767C477.534 232.064 470.747 224.912 465.657 211.631C461.585 201.074 459.549 190.516 459.549 180.64C459.549 172.126 460.227 163.612 461.924 155.78C464.978 141.817 470.747 128.195 479.909 115.254C491.107 98.5664 502.984 91.7553 515.201 94.1392C523.345 95.8419 530.132 102.994 535.222 116.275C539.294 126.832 541.33 137.39 541.33 147.266C541.33 156.12 540.312 164.634 538.955 172.467ZM316.035 38.6287C339.789 43.737 358.113 56.6782 370.33 78.1331C381.189 96.5231 386.618 118.659 386.618 145.222C386.618 180.3 377.795 212.312 360.149 241.6C339.789 275.655 313.32 292.683 280.404 292.683C274.635 292.683 268.527 292.002 262.079 290.64C237.986 285.531 220.001 272.59 207.785 251.135C196.926 232.405 191.496 209.928 191.496 183.705C191.496 148.628 200.319 116.616 217.965 87.6686C238.665 53.6131 265.133 36.5854 297.71 36.5854C303.479 36.5854 309.587 37.2665 316.035 38.6287ZM301.782 222.869C314.338 211.631 322.822 194.944 327.572 172.467C329.269 164.634 329.948 156.12 329.948 147.266C329.948 137.39 327.912 126.832 323.84 116.275C318.75 102.994 311.963 95.8419 303.819 94.1392C291.602 91.7553 279.725 98.5664 268.527 115.254C259.365 128.195 253.596 141.817 250.542 155.78C248.845 163.612 248.166 172.126 248.166 180.64C248.166 190.516 250.202 201.074 254.274 211.631C259.365 224.912 266.152 232.064 274.296 233.767C282.779 235.47 291.941 231.724 301.782 222.869Z" fill="white"/>
</svg>
